{
    "asset": {
        "generator": "COLLADA2GLTF",
        "version": "2.0"
    },
    "scenes": [
        {
            "nodes": [
                0
            ]
        }
    ],
    "scene": 0,
    "nodes": [
        {
            "children": [
                1
            ],
            "name": "Y_UP"
        },
        {
            "children": [
                2
            ],
            "translation": [
                7.142580509185791,
                0.8470029234886169,
                1.7428100109100342
            ],
            "rotation": [
                -0.0,
                -0.0,
                -0.0,
                -1.0
            ]
        },
        {
            "children": [
                3
            ],
            "rotation": [
                -0.0,
                -0.13380543887615205,
                -0.0,
                -0.9910076260566713
            ]
        },
        {
            "children": [
                4
            ],
            "rotation": [
                -0.0,
                -0.0,
                -0.0,
                -1.0
            ]
        },
        {
            "mesh": 0,
            "rotation": [
                -0.0,
                -0.0,
                -0.0,
                -1.0
            ],
            "name": "Cube"
        }
    ],
    "meshes": [
        {
            "primitives": [
                {
                    "attributes": {
                        "NORMAL": 1,
                        "POSITION": 2,
                        "TEXCOORD_0": 3
                    },
                    "indices": 0,
                    "mode": 4
                }
            ],
            "name": "ID69"
        }
    ],
    "animations": [
        {
            "channels": [
                {
                    "sampler": 0,
                    "target": {
                        "node": 1,
                        "path": "translation"
                    }
                },
                {
                    "sampler": 1,
                    "target": {
                        "node": 2,
                        "path": "rotation"
                    }
                },
                {
                    "sampler": 2,
                    "target": {
                        "node": 3,
                        "path": "rotation"
                    }
                },
                {
                    "sampler": 3,
                    "target": {
                        "node": 4,
                        "path": "rotation"
                    }
                }
            ],
            "samplers": [
                {
                    "input": 4,
                    "interpolation": "LINEAR",
                    "output": 5
                },
                {
                    "input": 6,
                    "interpolation": "LINEAR",
                    "output": 7
                },
                {
                    "input": 8,
                    "interpolation": "LINEAR",
                    "output": 9
                },
                {
                    "input": 10,
                    "interpolation": "LINEAR",
                    "output": 11
                }
            ]
        }
    ],
    "accessors": [
        {
            "bufferView": 0,
            "byteOffset": 0,
            "componentType": 5123,
            "count": 36,
            "max": [
                23
            ],
            "min": [
                0
            ],
            "type": "SCALAR"
        },
        {
            "bufferView": 1,
            "byteOffset": 0,
            "componentType": 5126,
            "count": 24,
            "max": [
                1.0,
                1.0,
                1.0
            ],
            "min": [
                -1.0,
                -1.0,
                -1.0
            ],
            "type": "VEC3"
        },
        {
            "bufferView": 1,
            "byteOffset": 288,
            "componentType": 5126,
            "count": 24,
            "max": [
                1.0,
                0.34038496017456057,
                0.1640480011701584
            ],
            "min": [
                -1.0,
                -0.34038496017456057,
                -0.1640480011701584
            ],
            "type": "VEC3"
        },
        {
            "bufferView": 2,
            "byteOffset": 0,
            "componentType": 5126,
            "count": 24,
            "max": [
                0.0,
                0.0
            ],
            "min": [
                0.0,
                0.0
            ],
            "type": "VEC2"
        },
        {
            "bufferView": 3,
            "byteOffset": 0,
            "componentType": 5126,
            "count": 8,
            "max": [
                10.0
            ],
            "min": [
                -0.03333330154418945
            ],
            "type": "SCALAR"
        },
        {
            "bufferView": 4,
            "byteOffset": 0,
            "componentType": 5126,
            "count": 8,
            "max": [
                23.48979949951172,
                3.104599952697754,
                3.16963005065918
            ],
            "min": [
                -25.87019920349121,
                0.7771809697151184,
                -1.2703700065612794
            ],
            "type": "VEC3"
        },
        {
            "bufferView": 3,
            "byteOffset": 32,
            "componentType": 5126,
            "count": 8,
            "max": [
                8.433329582214356
            ],
            "min": [
                -0.03333330154418945
            ],
            "type": "SCALAR"
        },
        {
            "bufferView": 5,
            "byteOffset": 0,
            "componentType": 5126,
            "count": 8,
            "max": [
                0.0,
                0.20411761105060576,
                0.0,
                -0.9626577496528626
            ],
            "min": [
                0.0,
                -0.2707214057445526,
                0.0,
                -1.0
            ],
            "type": "VEC4"
        },
        {
            "bufferView": 3,
            "byteOffset": 64,
            "componentType": 5126,
            "count": 8,
            "max": [
                8.433329582214356
            ],
            "min": [
                -0.03333330154418945
            ],
            "type": "SCALAR"
        },
        {
            "bufferView": 5,
            "byteOffset": 128,
            "componentType": 5126,
            "count": 8,
            "max": [
                -0.0,
                -0.0,
                -0.0,
                -1.0
            ],
            "min": [
                -0.0,
                -0.0,
                -0.0,
                -1.0
            ],
            "type": "VEC4"
        },
        {
            "bufferView": 3,
            "byteOffset": 96,
            "componentType": 5126,
            "count": 8,
            "max": [
                8.433329582214356
            ],
            "min": [
                -0.03333330154418945
            ],
            "type": "SCALAR"
        },
        {
            "bufferView": 5,
            "byteOffset": 256,
            "componentType": 5126,
            "count": 8,
            "max": [
                0.0,
                0.0,
                0.0,
                -1.0
            ],
            "min": [
                0.0,
                0.0,
                0.0,
                -1.0
            ],
            "type": "VEC4"
        }
    ],
    "bufferViews": [
        {
            "buffer": 0,
            "byteOffset": 1376,
            "byteLength": 72,
            "target": 34963
        },
        {
            "buffer": 0,
            "byteOffset": 480,
            "byteLength": 576,
            "byteStride": 12,
            "target": 34962
        },
        {
            "buffer": 0,
            "byteOffset": 1056,
            "byteLength": 192,
            "byteStride": 8,
            "target": 34962
        },
        {
            "buffer": 0,
            "byteOffset": 1248,
            "byteLength": 128
        },
        {
            "buffer": 0,
            "byteOffset": 384,
            "byteLength": 96
        },
        {
            "buffer": 0,
            "byteOffset": 0,
            "byteLength": 384
        }
    ],
    "buffers": [
        {
            "byteLength": 1448,
            "uri": "data:application/octet-stream;base64,"
        }
    ]
}
